<svg width="64" height="64" viewBox="0 0 64 64" fill="none" xmlns="http://www.w3.org/2000/svg">
<path d="M63 47.4082C63 50.7358 59.9471 54.0828 54.2178 56.6552C48.5832 59.185 40.7289 60.7755 32 60.7755C23.2711 60.7755 15.4168 59.185 9.78217 56.6552C4.05287 54.0828 1 50.7358 1 47.4082C1 44.0806 4.05287 40.7335 9.78217 38.1612C15.4168 35.6314 23.2711 34.0408 32 34.0408C40.7289 34.0408 48.5832 35.6314 54.2178 38.1612C59.9471 40.7335 63 44.0806 63 47.4082Z" fill="#8D709C" stroke="#684E77" stroke-width="2"/>
<path d="M39.7515 4.90447L34.9155 12.1584L34.6401 12.5716L34.8028 13.0408L35.7476 12.7131C34.8028 13.0408 34.8028 13.0409 34.8028 13.041L34.8032 13.0419L34.8044 13.0455L34.8094 13.06L34.8293 13.1175L34.9073 13.343C34.9757 13.541 35.0763 13.8326 35.2048 14.2063C35.4618 14.9538 35.8306 16.0297 36.2774 17.3433C37.171 19.9706 38.3766 23.5475 39.6244 27.3465C42.1317 34.9804 44.7739 43.4063 45.4388 46.8962C45.5296 47.3729 45.3893 47.812 44.8708 48.2871C44.3154 48.7962 43.3843 49.2759 42.0967 49.6776C39.5386 50.4756 35.9315 50.8577 32.2212 50.8175C28.5159 50.7774 24.8079 50.3172 22.059 49.4909C20.6785 49.0759 19.6049 48.5875 18.8974 48.0613C18.188 47.5336 17.9797 47.0761 17.9797 46.7091C17.9797 45.2245 18.5528 42.1327 19.4673 38.2039C20.371 34.3212 21.5778 29.7417 22.7873 25.3553C23.9962 20.9707 25.2054 16.7873 26.1126 13.6995C26.5661 12.1558 26.944 10.8864 27.2085 10.0031C27.3179 9.63771 27.4079 9.33839 27.4757 9.1131L39.7515 4.90447Z" fill="#8D709C" stroke="#684E77" stroke-width="2"/>
</svg>
